grf
version=1
nRows=17
nColumns=37
inDegrees=no
endheader
time	ground_force_1_vx	ground_force_1_vy	ground_force_1_vz	ground_force_1_px	ground_force_1_py	ground_force_1_pz	ground_moment_1_mx	ground_moment_1_my	ground_moment_1_mz	ground_force_2_vx	ground_force_2_vy	ground_force_2_vz	ground_force_2_px	ground_force_2_py	ground_force_2_pz	ground_moment_2_mx	ground_moment_2_my	ground_moment_2_mz	ground_force_3_vx	ground_force_3_vy	ground_force_3_vz	ground_force_3_px	ground_force_3_py	ground_force_3_pz	ground_moment_3_mx	ground_moment_3_my	ground_moment_3_mz	ground_force_4_vx	ground_force_4_vy	ground_force_4_vz	ground_force_4_px	ground_force_4_py	ground_force_4_pz	ground_moment_4_mx	ground_moment_4_my	ground_moment_4_mz
      6.12000000	      0.00000000	     -0.00000000	      0.00000000	      0.00000000	      0.00000000	      0.00000000	      0.00000000	      0.00000000	      0.00000000	      0.44605255	     45.82659531	   -389.44995117	   -147.43164532	  -1038.26224574	      0.00000000	     -0.00000000	     -0.00000000	   -503.33042184	     -1.58325415	    -42.88388811	   -363.86929321	   -139.45151030	   -651.27612246	      0.00000000	      0.00000000	     -0.00000000	  -1440.64015837	      0.00000000	     -0.00000000	      0.00000000	      0.00000000	      0.00000000	      0.00000000	      0.00000000	      0.00000000	      0.00000000
      6.13000000	      0.00000000	     -0.00000000	      0.00000000	      0.00000000	      0.00000000	      0.00000000	      0.00000000	      0.00000000	      0.00000000	     -0.11082589	     44.97574997	   -387.05319214	   -147.18418848	  -1038.85717970	      0.00000000	     -0.00000000	      0.00000000	   -579.64757543	     -2.30648417	    -43.01266459	   -359.38314819	   -138.83229149	   -652.85358866	      0.00000000	      0.00000000	     -0.00000000	  -1253.68717943	      0.00000000	     -0.00000000	      0.00000000	      0.00000000	      0.00000000	      0.00000000	      0.00000000	      0.00000000	      0.00000000
      6.14000000	      0.00000000	     -0.00000000	      0.00000000	      0.00000000	      0.00000000	      0.00000000	      0.00000000	      0.00000000	      0.00000000	     -0.19186611	     44.59206772	   -387.95126343	   -149.34588791	  -1038.79436561	      0.00000000	      0.00000000	     -0.00000000	   -330.47868317	     -2.19095695	    -42.21776562	   -359.57339478	   -140.38042988	   -651.36756538	      0.00000000	      0.00000000	      0.00000000	  -1451.09811763	      0.00000000	     -0.00000000	      0.00000000	      0.00000000	      0.00000000	      0.00000000	      0.00000000	      0.00000000	      0.00000000
      6.15000000	      0.00000000	     -0.00000000	      0.00000000	      0.00000000	      0.00000000	      0.00000000	      0.00000000	      0.00000000	      0.00000000	      0.19179894	     44.62760162	   -389.87527466	   -149.97471694	  -1038.37405801	      0.00000000	      0.00000000	     -0.00000000	   -692.28722181	     -2.08903840	    -41.27279645	   -358.57873535	   -140.83149036	   -651.78857192	      0.00000000	      0.00000000	      0.00000000	  -1407.09615117	      0.00000000	     -0.00000000	      0.00000000	      0.00000000	      0.00000000	      0.00000000	      0.00000000	      0.00000000	      0.00000000
      6.16000000	      0.00000000	     -0.00000000	      0.00000000	      0.00000000	      0.00000000	      0.00000000	      0.00000000	      0.00000000	      0.00000000	      0.45936474	     44.46673965	   -393.63754272	   -150.59843124	  -1038.54066060	      0.00000000	      0.00000000	     -0.00000000	   -599.37860042	     -1.13996781	    -41.00769796	   -359.38153076	   -142.26236241	   -651.95036558	      0.00000000	      0.00000000	     -0.00000000	  -1323.25439635	      0.00000000	     -0.00000000	      0.00000000	      0.00000000	      0.00000000	      0.00000000	      0.00000000	      0.00000000	      0.00000000
      6.17000000	      0.00000000	     -0.00000000	      0.00000000	      0.00000000	      0.00000000	      0.00000000	      0.00000000	      0.00000000	      0.00000000	      0.91513169	     44.87226868	   -398.38696289	   -150.76531643	  -1038.16667371	      0.00000000	      0.00000000	     -0.00000000	   -401.14920891	     -1.53448908	    -41.46230303	   -361.31997681	   -143.32863601	   -652.53015927	      0.00000000	      0.00000000	     -0.00000000	  -1319.59077215	      0.00000000	     -0.00000000	      0.00000000	      0.00000000	      0.00000000	      0.00000000	      0.00000000	      0.00000000	      0.00000000
      6.18000000	      0.00000000	     -0.00000000	      0.00000000	      0.00000000	      0.00000000	      0.00000000	      0.00000000	      0.00000000	      0.00000000	      1.13339424	     45.56896973	   -401.17211914	   -151.78523139	  -1036.94276172	      0.00000000	      0.00000000	     -0.00000000	   -559.49139255	     -1.41937620	    -41.67475879	   -361.72106934	   -143.16283770	   -653.64358916	      0.00000000	      0.00000000	     -0.00000000	  -1131.96677879	      0.00000000	     -0.00000000	      0.00000000	      0.00000000	      0.00000000	      0.00000000	      0.00000000	      0.00000000	      0.00000000
      6.19000000	      0.00000000	     -0.00000000	      0.00000000	      0.00000000	      0.00000000	      0.00000000	      0.00000000	      0.00000000	      0.00000000	      0.89210510	     45.73699188	   -406.00128174	   -153.27876908	  -1037.42798348	      0.00000000	     -0.00000000	      0.00000000	   -544.75919622	     -0.90018200	    -41.53721992	   -365.06924438	   -145.63570213	   -653.05406475	      0.00000000	      0.00000000	      0.00000000	  -1184.14893623	      0.00000000	     -0.00000000	      0.00000000	      0.00000000	      0.00000000	      0.00000000	      0.00000000	      0.00000000	      0.00000000
      6.20000000	      0.00000000	     -0.00000000	      0.00000000	      0.00000000	      0.00000000	      0.00000000	      0.00000000	      0.00000000	      0.00000000	      1.19682670	     46.90663147	   -411.20462036	   -154.10088395	  -1036.77890990	      0.00000000	      0.00000000	     -0.00000000	   -268.31885552	     -0.67070334	    -41.40993494	   -364.46313477	   -145.55096936	   -654.19719190	      0.00000000	      0.00000000	     -0.00000000	  -1068.71838953	      0.00000000	     -0.00000000	      0.00000000	      0.00000000	      0.00000000	      0.00000000	      0.00000000	      0.00000000	      0.00000000
      6.21000000	      0.00000000	     -0.00000000	      0.00000000	      0.00000000	      0.00000000	      0.00000000	      0.00000000	      0.00000000	      0.00000000	      0.52229869	     47.41891479	   -415.08297729	   -154.76275562	  -1037.59621030	      0.00000000	      0.00000000	     -0.00000000	   -514.92322024	     -0.10164457	    -41.64921569	   -365.11080933	   -145.71485769	   -653.97815683	      0.00000000	      0.00000000	     -0.00000000	  -1085.75726208	      0.00000000	     -0.00000000	      0.00000000	      0.00000000	      0.00000000	      0.00000000	      0.00000000	      0.00000000	      0.00000000
      6.22000000	      0.00000000	     -0.00000000	      0.00000000	      0.00000000	      0.00000000	      0.00000000	      0.00000000	      0.00000000	      0.00000000	      0.17842102	     48.01553345	   -419.47567749	   -156.02210139	  -1037.85256041	      0.00000000	      0.00000000	     -0.00000000	   -694.15947760	     -0.67240732	    -42.14096063	   -365.11138916	   -146.59572015	   -654.59181496	      0.00000000	      0.00000000	     -0.00000000	  -1236.01670122	      0.00000000	     -0.00000000	      0.00000000	      0.00000000	      0.00000000	      0.00000000	      0.00000000	      0.00000000	      0.00000000
      6.23000000	      0.00000000	     -0.00000000	      0.00000000	      0.00000000	      0.00000000	      0.00000000	      0.00000000	      0.00000000	      0.00000000	      0.14051665	     48.43625641	   -422.35473633	   -156.88302364	  -1035.84545294	      0.00000000	      0.00000000	      0.00000000	   -503.01365942	     -2.16744172	    -42.24324017	   -365.61212158	   -146.39734254	   -654.14812295	      0.00000000	      0.00000000	     -0.00000000	  -1179.68185214	      0.00000000	     -0.00000000	      0.00000000	      0.00000000	      0.00000000	      0.00000000	      0.00000000	      0.00000000	      0.00000000
      6.24000000	      0.00000000	     -0.00000000	      0.00000000	      0.00000000	      0.00000000	      0.00000000	      0.00000000	      0.00000000	      0.00000000	     -0.21658805	     48.97084045	   -429.11364746	   -158.11573923	  -1037.14087393	      0.00000000	      0.00000000	     -0.00000000	   -614.19941839	     -2.88965998	    -42.04150747	   -366.10977173	   -146.01148377	   -653.30161553	      0.00000000	      0.00000000	     -0.00000000	  -1363.30071983	      0.00000000	     -0.00000000	      0.00000000	      0.00000000	      0.00000000	      0.00000000	      0.00000000	      0.00000000	      0.00000000
      6.25000000	      0.00000000	     -0.00000000	      0.00000000	      0.00000000	      0.00000000	      0.00000000	      0.00000000	      0.00000000	      0.00000000	      0.67562765	     49.36516190	   -434.00793457	   -159.06327655	  -1038.00579430	      0.00000000	      0.00000000	     -0.00000000	   -239.26625982	     -3.62449301	    -42.34388320	   -365.81127930	   -146.13276937	   -653.87325912	      0.00000000	      0.00000000	     -0.00000000	  -1289.56464628	      0.00000000	     -0.00000000	      0.00000000	      0.00000000	      0.00000000	      0.00000000	      0.00000000	      0.00000000	      0.00000000
      6.26000000	      0.00000000	     -0.00000000	      0.00000000	      0.00000000	      0.00000000	      0.00000000	      0.00000000	      0.00000000	      0.00000000	      0.19104077	     50.27042007	   -434.66113281	   -159.08769628	  -1034.51861746	      0.00000000	      0.00000000	     -0.00000000	   -519.77743307	     -4.44753166	    -43.16424140	   -367.10699463	   -146.11965204	   -653.20175665	      0.00000000	      0.00000000	     -0.00000000	  -1253.01686929	      0.00000000	     -0.00000000	      0.00000000	      0.00000000	      0.00000000	      0.00000000	      0.00000000	      0.00000000	      0.00000000
      6.27000000	      0.00000000	     -0.00000000	      0.00000000	      0.00000000	      0.00000000	      0.00000000	      0.00000000	      0.00000000	      0.00000000	      0.53526306	     49.83776855	   -438.34072876	   -159.48781210	  -1034.52886602	      0.00000000	      0.00000000	     -0.00000000	   -481.42054474	     -5.28402847	    -42.97526123	   -366.55990601	   -146.42523111	   -653.65691071	      0.00000000	      0.00000000	     -0.00000000	  -1305.54316508	      0.00000000	     -0.00000000	      0.00000000	      0.00000000	      0.00000000	      0.00000000	      0.00000000	      0.00000000	      0.00000000
      6.28000000	      0.00000000	     -0.00000000	      0.00000000	      0.00000000	      0.00000000	      0.00000000	      0.00000000	      0.00000000	      0.00000000	      0.20337828	     49.79896164	   -441.53170776	   -160.46383636	  -1035.68328395	      0.00000000	      0.00000000	     -0.00000000	   -381.81743182	     -6.34825794	    -42.72133962	   -367.00735474	   -146.70590617	   -653.57646418	      0.00000000	      0.00000000	     -0.00000000	  -1251.27755006	      0.00000000	     -0.00000000	      0.00000000	      0.00000000	      0.00000000	      0.00000000	      0.00000000	      0.00000000	      0.00000000
